HIERARCHY
ROOT hip
{
  OFFSET 0 0 0
  CHANNELS 6 Xposition Yposition Zposition Zrotation Yrotation Xrotation
  JOINT abdomen
  {
    OFFSET 0 20.6881 -0.73152
    CHANNELS 3 Zrotation Xrotation Yrotation
    JOINT chest
    {
      OFFSET 0 11.7043 -0.48768
      CHANNELS 3 Zrotation Xrotation Yrotation
      JOINT neck
      {
        OFFSET 0 22.1894 -2.19456
        CHANNELS 3 Zrotation Xrotation Yrotation
        JOINT head
        {
          OFFSET -0.24384 7.07133 1.2192
          CHANNELS 3 Zrotation Xrotation Yrotation
          JOINT leftEye
          {
            OFFSET 4.14528 8.04674 8.04672
            CHANNELS 3 Zrotation Xrotation Yrotation
            End Site
            {
              OFFSET 1 0 0
            }
          }
          JOINT rightEye
          {
            OFFSET -3.6576 8.04674 8.04672
            CHANNELS 3 Zrotation Xrotation Yrotation
            End Site
            {
              OFFSET 1 0 0
            }
          }
        }
      }
      JOINT rCollar
      {
        OFFSET -2.68224 19.2634 -4.8768
        CHANNELS 3 Zrotation Xrotation Yrotation
        JOINT rShldr
        {
          OFFSET -8.77824 -1.95073 1.46304
          CHANNELS 3 Zrotation Xrotation Yrotation
          JOINT rForeArm
          {
            OFFSET -28.1742 -1.7115 0.48768
            CHANNELS 3 Zrotation Xrotation Yrotation
            JOINT rHand
            {
              OFFSET -22.5879 0.773209 7.07136
              CHANNELS 3 Zrotation Xrotation Yrotation
              JOINT rThumb1
              {
                OFFSET -1.2192 -0.487915 3.41376
                CHANNELS 3 Zrotation Xrotation Yrotation
                JOINT rThumb2
                {
                  OFFSET -3.37035 -0.52449 3.41376
                  CHANNELS 3 Zrotation Xrotation Yrotation
                  End Site
                  {
                    OFFSET -1.78271 -1.18214 1.43049
                  }
                }
              }
              JOINT rIndex1
              {
                OFFSET -7.75947 0.938293 5.60832
                CHANNELS 3 Zrotation Xrotation Yrotation
                JOINT rIndex2
                {
                  OFFSET -2.54057 -0.884171 1.56538
                  CHANNELS 3 Zrotation Xrotation Yrotation
                  End Site
                  {
                    OFFSET -1.62519 -0.234802 1.16502
                  }
                }
              }
              JOINT rMid1
              {
                OFFSET -8.24714 1.18213 3.41376
                CHANNELS 3 Zrotation Xrotation Yrotation
                JOINT rMid2
                {
                  OFFSET -3.10165 -0.590103 1.0647
                  CHANNELS 3 Zrotation Xrotation Yrotation
                  End Site
                  {
                    OFFSET -2.48547 -0.328903 0.83742
                  }
                }
              }
              JOINT rRing1
              {
                OFFSET -8.82822 0.546677 1.51678
                CHANNELS 3 Zrotation Xrotation Yrotation
                JOINT rRing2
                {
                  OFFSET -2.60934 -0.819778 -0.0198488
                  CHANNELS 3 Zrotation Xrotation Yrotation
                  End Site
                  {
                    OFFSET -2.33842 -0.294052 0.168128
                  }
                }
              }
              JOINT rPinky1
              {
                OFFSET -8.27202 -0.0477905 -0.4584
                CHANNELS 3 Zrotation Xrotation Yrotation
                JOINT rPinky2
                {
                  OFFSET -1.82734 -0.647385 -0.700984
                  CHANNELS 3 Zrotation Xrotation Yrotation
                  End Site
                  {
                    OFFSET -1.69225 -0.51767 -0.607171
                  }
                }
              }
            }
          }
        }
      }
      JOINT lCollar
      {
        OFFSET 2.68224 19.2634 -4.8768
        CHANNELS 3 Zrotation Xrotation Yrotation
        JOINT lShldr
        {
          OFFSET 8.77824 -1.95073 1.46304
          CHANNELS 3 Zrotation Xrotation Yrotation
          JOINT lForeArm
          {
            OFFSET 28.1742 -1.7115 0.48768
            CHANNELS 3 Zrotation Xrotation Yrotation
            JOINT lHand
            {
              OFFSET 22.5879 0.773209 7.07136
              CHANNELS 3 Zrotation Xrotation Yrotation
              JOINT lThumb1
              {
                OFFSET 1.2192 -0.487915 3.41376
                CHANNELS 3 Zrotation Xrotation Yrotation
                JOINT lThumb2
                {
                  OFFSET 3.37035 -0.52449 3.41376
                  CHANNELS 3 Zrotation Xrotation Yrotation
                  End Site
                  {
                    OFFSET 1.78271 -1.18214 1.43049
                  }
                }
              }
              JOINT lIndex1
              {
                OFFSET 7.75947 0.938293 5.60832
                CHANNELS 3 Zrotation Xrotation Yrotation
                JOINT lIndex2
                {
                  OFFSET 2.54057 -0.884171 1.56538
                  CHANNELS 3 Zrotation Xrotation Yrotation
                  End Site
                  {
                    OFFSET 1.62519 -0.234802 1.16502
                  }
                }
              }
              JOINT lMid1
              {
                OFFSET 8.24714 1.18213 3.41376
                CHANNELS 3 Zrotation Xrotation Yrotation
                JOINT lMid2
                {
                  OFFSET 3.10165 -0.590103 1.0647
                  CHANNELS 3 Zrotation Xrotation Yrotation
                  End Site
                  {
                    OFFSET 2.48547 -0.328903 0.83742
                  }
                }
              }
              JOINT lRing1
              {
                OFFSET 8.82822 0.546677 1.51678
                CHANNELS 3 Zrotation Xrotation Yrotation
                JOINT lRing2
                {
                  OFFSET 2.60934 -0.819778 -0.0198488
                  CHANNELS 3 Zrotation Xrotation Yrotation
                  End Site
                  {
                    OFFSET 2.33842 -0.294052 0.168128
                  }
                }
              }
              JOINT lPinky1
              {
                OFFSET 8.27202 -0.0477905 -0.4584
                CHANNELS 3 Zrotation Xrotation Yrotation
                JOINT lPinky2
                {
                  OFFSET 1.82734 -0.647385 -0.700984
                  CHANNELS 3 Zrotation Xrotation Yrotation
                  End Site
                  {
                    OFFSET 1.69225 -0.51767 -0.607171
                  }
                }
              }
            }
          }
        }
      }
    }
  }
  JOINT rButtock
  {
    OFFSET -8.77824 4.35084 1.2192
    CHANNELS 3 Zrotation Xrotation Yrotation
    JOINT rThigh
    {
      OFFSET 0 -1.70687 -2.19456
      CHANNELS 3 Zrotation Xrotation Yrotation
      JOINT rShin
      {
        OFFSET 0 -36.8199 0.73152
        CHANNELS 3 Zrotation Xrotation Yrotation
        JOINT rFoot
        {
          OFFSET 0.73152 -45.1104 -5.12064
          CHANNELS 3 Zrotation Xrotation Yrotation
          End Site
          {
            OFFSET -1.1221 -3.69964 12.103
          }
        }
      }
    }
  }
  JOINT lButtock
  {
    OFFSET 8.77824 4.35084 1.2192
    CHANNELS 3 Zrotation Xrotation Yrotation
    JOINT lThigh
    {
      OFFSET 0 -1.70687 -2.19456
      CHANNELS 3 Zrotation Xrotation Yrotation
      JOINT lShin
      {
        OFFSET 0 -36.8199 0.73152
        CHANNELS 3 Zrotation Xrotation Yrotation
        JOINT lFoot
        {
          OFFSET -0.73152 -45.1104 -5.12064
          CHANNELS 3 Zrotation Xrotation Yrotation
          End Site
          {
            OFFSET 1.1221 -3.69964 12.103
          }
        }
      }
    }
  }
}
MOTION
Frames:	6
Frame Time:	0.03333
-24.3735 52.4937 49.0353 -162.553508 -56.305218 157.67289 2.901135 35.762075 12.527643 -3.639339 -21.67049 -2.438346 7.508316 8.614332 129.770769 -18.465331 7.585985 -121.746454 43.637313 10.803106 26.5774 8.112383 7.224307 83.352219 -83.224596 -69.115146 -98.142831 106.703961 35.138286 -100.894119 5.050896 17.946903 72.641861 14.699429 25.000423 -21.977808 -101.916192 7.791885 27.383812 -67.827866 -28.081745 -175.776964 -151.683968 16.088972 50.051399 7.023832 -13.528883 -117.75984 -8.762719 -21.790039 38.955264 94.526637 77.400901 -92.398289 -73.182199 11.594814 101.82526 46.045122 22.1833 -24.225783 106.864821 -42.467286 130.368267 136.692077 5.298581 139.930703 17.683845 44.516614 -8.431092 108.808248 2.137318 -78.115209 -9.96606 4.883865 137.77122 -140.862028 -0.787109 -136.887875 12.453795 -6.657449 -3.960142 133.873719 42.103556 -89.828422 -55.508129 -83.896202 -70.724488 -161.365206 -15.157277 83.807269 146.107682 42.875466 -71.413603 -133.769932 15.783337 -77.602025 107.115027 52.886485 -114.851201 83.540199 75.796066 -90.787627 -34.21251 -13.866944 31.483076 60.577792 -45.339127 -69.981992 -96.428741 -13.377938 -65.135087 47.770715 32.933167 -0.0 -39.103398 63.914484 -52.716578 75.511171 76.112086 15.267889 102.722199 -9.633077 45.785973 -40.67087 17.859818 -109.642802 -61.907832 -26.487334 57.853227 153.749071 12.95513 -51.458568
-26.307799999999997 52.004 50.44539999999999 -162.513239 -56.884232 157.922567 3.601587 34.63783 -0.0 0.687193 -20.454092 8.559123 -1.092466 -7.064083 2.547187 11.516243 -3.486605 1.808365 46.814726 14.618623 33.009715 7.27675 7.051776 88.196236 -162.19931 19.007663 173.011821 -117.948838 54.730658 65.784383 -122.046735 39.784808 -153.558528 21.672156 6.398119 -8.334237 138.102695 14.500449 76.655504 13.159816 -37.913794 104.467755 139.711591 11.08982 98.861811 125.338284 76.338831 -40.625836 22.221467 -46.213694 55.560598 -27.341634 -37.899684 -62.384054 -83.581819 2.502852 113.699228 81.308335 55.435872 -37.558614 -34.446437 -22.168913 78.644951 54.754752 2.940572 -111.811282 26.619486 63.56693 -21.080861 115.351658 18.730934 -65.631526 89.0441 28.190788 107.479524 -66.822032 -31.701876 -42.144162 176.622636 12.810243 -85.245202 -29.670514 -16.549435 -20.718982 39.797992 -61.37168 12.786398 1.095889 20.63405 -177.872159 -114.497243 -22.887143 -121.651476 -107.017392 28.943239 166.105038 122.642686 47.712739 -131.8792 3.024636 36.494602 -4.347321 115.649654 36.193085 119.765942 76.201835 86.935009 110.161223 -100.301265 0.745586 -75.617043 55.744722 37.575977 33.64678 47.68317 61.610908 52.703725 -15.121746 -13.889286 -100.469883 9.340197 62.497868 -106.582715 91.330652 60.106581 -1.796345 -75.4552 -11.003965 -94.935524 -53.149146 11.553477 -157.364333
-27.5884 53.18150000000001 51.881600000000006 -153.862026 -61.906899 152.050817 7.912068 26.755342 89.761795 -14.161985 0.81191 -84.424482 8.138694 1.910315 125.497412 -16.021286 -1.126494 -106.915404 58.892489 16.318063 28.49977 4.919621 4.096867 79.561781 -120.324734 -60.345375 -138.796241 110.736412 28.277673 -116.230094 29.359531 24.499861 59.551064 135.546851 70.878767 -160.052487 -26.929842 -75.769814 1.245984 -63.421492 27.738016 -119.729297 147.693726 47.851007 104.896113 146.897779 36.50902 -69.424932 -45.866339 -14.966792 15.230175 95.653755 -79.595522 41.681982 92.654655 -19.652826 102.457574 -43.277349 14.935312 -0.451698 127.245441 -25.549932 158.795321 144.909022 26.925476 126.829538 2.95735 0.062434 9.689053 124.268357 -31.701291 -103.016961 -96.895178 -30.270132 104.091002 -159.248262 56.667972 -173.8307 29.967083 -5.871521 8.934734 33.688094 12.320503 -7.274609 94.477609 49.573622 -28.608843 32.502277 72.135262 139.892061 -67.093833 -68.321236 -91.087316 20.75698 -3.037431 100.30167 63.381958 54.699127 -95.896421 173.2307 0.474636 175.408634 -49.42248 -7.311224 27.147633 -152.540952 34.212367 -132.188841 -51.462744 -45.371972 -0.0 12.803591 19.111857 -34.76483 -5.119369 62.001415 -9.048971 -33.925123 -16.525183 27.608172 14.598736 14.41752 -90.268075 46.895292 35.691053 -0.0 -65.439866 -16.395145 2.285189 -177.180922 62.952347 -97.1921
-28.6616 53.3152 53.536300000000004 -149.716881 -62.311289 149.008156 13.571089 25.996718 -5.524696 -3.612099 -14.464224 10.13953 4.5718 -6.257225 66.972315 2.727865 -16.121042 -46.292773 72.462523 14.481246 19.673756 6.423126 4.574703 70.890771 9.600782 68.206571 -16.971753 -87.629575 -1.964024 112.243132 15.00566 26.178559 -107.995405 150.50561 -14.640824 117.378554 -5.091554 -36.265571 28.103907 154.014744 3.128152 -130.15913 -148.164669 17.222998 48.159879 -7.33096 3.383532 -133.147264 30.218664 -40.810606 51.260667 -16.059949 -70.922342 -51.813653 88.136526 -6.890556 71.072357 -62.498026 18.538738 3.563276 -18.866799 -19.882711 76.050221 85.655021 -30.287997 -121.935555 163.686238 -19.719434 -174.535011 71.421842 0.427904 89.506118 -10.065444 27.235867 133.363266 -142.986506 -33.453919 -138.059407 173.619967 24.648807 -81.93385 -168.829893 -46.190701 -70.325532 39.194559 -57.139361 37.301498 -16.937101 -40.100275 -156.700847 -138.163929 -63.467177 -148.758301 -170.547558 12.565684 122.971764 139.994968 -16.444877 -149.098168 -16.484298 37.861067 1.804163 -50.443408 -21.30956 19.958224 -162.767796 21.981859 -126.184514 2.961603 -0.400252 82.310119 -35.034031 32.182861 -34.559508 57.518791 33.279833 -78.228278 -56.562218 -20.029956 19.792678 118.09597 -3.445648 83.759182 -53.153883 45.069283 42.593255 56.604184 33.775955 -62.861334 -108.734316 -25.193385 -8.613749
-29.678700000000003 52.99549999999999 55.2004 -148.920236 -63.886809 148.249293 11.833739 23.21081 21.032703 -7.952993 -9.448775 -16.674777 -12.389362 -7.227765 -25.415523 31.275347 10.093496 40.54571 69.080901 8.286376 12.015335 6.439631 4.503596 69.905537 -53.777907 -58.456085 -69.974907 -158.192192 16.275002 -115.892321 5.243654 -54.911465 70.964796 2.859538 0.812616 -27.030477 -12.588082 4.945185 31.294711 -119.736885 46.421001 -46.130118 -154.821985 -7.793577 62.403222 -90.030056 4.204159 -125.295388 -8.299932 -3.252598 38.307953 -138.382233 0.259293 156.876699 -78.000842 -18.50631 149.400221 -78.670361 -29.682312 -175.53393 37.163898 -42.400962 71.125952 -69.009147 -49.768558 74.157421 14.474873 37.273189 1.886918 -67.272142 -3.515701 -118.145744 6.76492 -4.445608 -92.497181 2.809692 49.808656 -6.896043 43.358074 -4.933526 0.85567 119.684899 -10.776826 -130.032747 120.526165 66.469157 -68.727498 -72.736807 -10.319619 167.260329 179.387114 56.758051 -126.855977 59.804899 -65.423245 -19.477924 -92.454632 -66.201627 -74.940045 -13.727426 52.661535 4.522695 74.619662 22.649344 153.51789 -99.531055 -32.696981 16.764467 -96.552556 -6.206538 -76.626196 44.808847 42.537412 124.239112 67.9248 -23.569225 4.704217 -122.172651 -58.293469 148.205322 13.422469 0.32601 -90.080167 41.838395 35.364774 122.88096 36.4391 59.016639 -90.291391 74.283713 41.903298 11.366692
-30.786599999999996 53.1486 56.8974 -149.355472 -65.312732 148.45881 11.776214 22.158904 -4.03655 -4.052192 -11.311684 6.566441 1.534298 1.543672 98.568194 -13.146476 -15.366674 -79.53339 60.173244 5.142685 8.864612 5.543502 4.142389 73.518991 -177.223132 71.366503 177.820945 150.025264 6.159845 106.081212 144.132603 -79.86579 36.005188 -178.234348 14.35589 116.64151 11.266976 10.188121 23.655239 81.935768 -23.638989 146.960231 -16.813175 -20.279208 51.113688 -115.027413 -27.125621 -3.079236 25.155257 -24.313736 35.897881 -154.882208 68.429853 160.773595 -58.937567 15.708251 142.185821 -49.250344 -26.505239 -127.387185 -38.459046 16.193917 90.758201 70.158593 14.803193 -145.930337 117.420334 82.282882 -108.204405 90.688888 -6.814078 -5.404381 -117.525802 -32.195538 126.42254 173.174763 60.122175 -159.534047 9.784317 -42.828052 -9.997892 32.382836 51.267691 1.622692 63.243692 59.827044 -10.518628 -119.74672 -47.761403 137.312034 49.529078 27.218666 8.435054 -16.818195 11.264017 -96.414673 94.436736 30.863044 -106.131754 176.449726 -72.296694 -171.767495 63.847547 26.148191 169.653556 -97.655043 -28.553681 19.490704 8.345228 14.417311 91.665133 -43.427067 41.618703 -125.056421 -42.092984 57.614122 144.341004 -150.927772 -37.200077 114.471296 15.26912 -0.228228 -90.835971 42.360855 36.065139 -0.0 -65.728574 -12.68895 66.514814 32.625643 3.215108 29.043315
